<?xml version="1.0" encoding="UTF-8" standalone="no" ?>
<!DOCTYPE svg PUBLIC "-//W3C//DTD SVG 1.1//EN" "http://www.w3.org/Graphics/SVG/1.1/DTD/svg11.dtd">
<svg xmlns="http://www.w3.org/2000/svg" xmlns:xlink="http://www.w3.org/1999/xlink" version="1.1" width="1200" height="900" viewBox="25.71 -38.57 1200 900" xml:space="preserve">
<desc>Created with Fabric.js 5.2.4</desc>
<defs>
</defs>
<rect x="0" y="0" width="100%" height="100%" fill="transparent"></rect>
<g transform="matrix(Infinity NaN NaN Infinity 0 0)" id="da5728f2-6b27-4a61-ad42-802cf1147177"  >
</g>
<g transform="matrix(1 0 0 1 600 450)" id="05737ac0-9ccd-423f-b575-071001448d03"  >
<rect style="stroke: none; stroke-width: 1; stroke-dasharray: none; stroke-linecap: butt; stroke-dashoffset: 0; stroke-linejoin: miter; stroke-miterlimit: 4; fill: rgb(255,255,255); fill-rule: nonzero; opacity: 1; visibility: hidden;" vector-effect="non-scaling-stroke"  x="-600" y="-450" rx="0" ry="0" width="1200" height="900" />
</g>
<g transform="matrix(2.43 0 0 2.43 600 450)"  >
<g style=""   >
		<g transform="matrix(3.21 0 0 3.21 -194.57 -0.89)" id="SvgjsG3979"  >
<polygon style="stroke: none; stroke-width: 1; stroke-dasharray: none; stroke-linecap: butt; stroke-dashoffset: 0; stroke-linejoin: miter; stroke-miterlimit: 4; fill: rgb(112,69,175); fill-rule: nonzero; opacity: 1;" vector-effect="non-scaling-stroke"  points="-3.65,9.86 -6.21,7.3 1.1,0 -6.21,-7.3 -3.65,-9.86 6.21,0 " />
</g>
		<g transform="matrix(3.21 0 0 3.21 -146.67 26.73)" id="SvgjsG3979"  >
<rect style="stroke: none; stroke-width: 1; stroke-dasharray: none; stroke-linecap: butt; stroke-dashoffset: 0; stroke-linejoin: miter; stroke-miterlimit: 4; fill: rgb(112,69,175); fill-rule: nonzero; opacity: 1;" vector-effect="non-scaling-stroke"  x="-8.25" y="-1.81" rx="0" ry="0" width="16.5" height="3.62" />
</g>
		<g transform="matrix(1.98 0 0 1.98 59.44 0.59)"  >
<path style="stroke: none; stroke-width: 1; stroke-dasharray: none; stroke-linecap: butt; stroke-dashoffset: 0; stroke-linejoin: miter; stroke-miterlimit: 4; fill: rgb(57,57,57); fill-rule: nonzero; opacity: 1;" vector-effect="non-scaling-stroke"  transform=" translate(-82.7, -26)" d="M 4 40 L 4 12 L 16.8 12 C 21 12 23.8 14.8 23.8 18.6 L 23.8 33.400000000000006 C 23.8 37.2 21 40.00000000000001 16.8 40.00000000000001 L 4 40.00000000000001 z M 7 14.600000000000001 L 7 37.400000000000006 L 16.8 37.400000000000006 C 19 37.400000000000006 20.8 35.60000000000001 20.8 33.400000000000006 L 20.8 18.600000000000005 C 20.8 16.400000000000006 19 14.600000000000005 16.8 14.600000000000005 L 7 14.600000000000005 z M 49.2 40 L 46.2 40 L 46.2 29 L 38.2 29 L 32 40 L 29 40 L 29 38.8 L 35.2 28.799999999999997 C 35.2 28.799999999999997 29.800000000000004 27.999999999999996 29.800000000000004 22.4 L 29.800000000000004 18.599999999999998 C 29.800000000000004 14.799999999999997 32.6 11.999999999999998 36.800000000000004 11.999999999999998 L 49.2 11.999999999999998 L 49.2 40 z M 46.2 14.600000000000001 L 36.800000000000004 14.600000000000001 C 34.6 14.600000000000001 32.800000000000004 16.400000000000002 32.800000000000004 18.6 L 32.800000000000004 22.400000000000002 C 32.800000000000004 24.6 34.6 26.400000000000002 36.800000000000004 26.400000000000002 L 46.2 26.400000000000002 L 46.2 14.600000000000001 z M 60.2 40 L 57.2 40 L 57.2 12 L 60.2 12 L 60.2 40 z M 86.80000000000001 40 L 74.4 40 C 70.2 40 67.4 37.2 67.4 33.4 L 67.4 18.599999999999998 C 67.4 14.799999999999997 70.2 11.999999999999998 74.4 11.999999999999998 L 86 11.999999999999998 L 86 13.799999999999999 L 85.2 14.6 L 74.4 14.6 C 72.2 14.6 70.4 16.4 70.4 18.6 L 70.4 33.400000000000006 C 70.4 35.60000000000001 72.2 37.400000000000006 74.4 37.400000000000006 L 83.80000000000001 37.400000000000006 L 83.80000000000001 24.800000000000004 L 86.80000000000001 24.800000000000004 L 86.80000000000001 40 z M 93.2 33.8 L 93.2 18.199999999999996 C 93.2 14.399999999999995 96 11.599999999999996 100.2 11.599999999999996 L 107.2 11.599999999999996 C 111.4 11.599999999999996 114.2 14.399999999999995 114.2 18.199999999999996 L 114.2 33.8 C 114.2 37.599999999999994 111.4 40.4 107.2 40.4 L 100.2 40.4 C 96 40.4 93.2 37.6 93.2 33.8 z M 111.2 33.8 L 111.2 18.199999999999996 C 111.2 15.999999999999996 109.4 14.199999999999996 107.2 14.199999999999996 L 100.2 14.199999999999996 C 98 14.199999999999996 96.2 15.999999999999996 96.2 18.199999999999996 L 96.2 33.8 C 96.2 36 98 37.8 100.2 37.8 L 107.2 37.8 C 109.4 37.8 111.2 36 111.2 33.8 z M 128.8 36.4 L 129 36.4 L 137 12 L 140 12 L 140 13.2 L 130.8 40 L 127.00000000000001 40 L 117.80000000000001 13.2 L 117.80000000000001 12 L 120.80000000000001 12 z M 161.4 37.4 L 161.4 40 L 141.4 40 L 141.4 37.4 L 157.6 14.799999999999997 L 157.6 14.599999999999998 L 142.6 14.599999999999998 L 141.79999999999998 13.799999999999997 L 141.79999999999998 11.999999999999996 L 161.39999999999998 11.999999999999996 L 161.39999999999998 14.599999999999996 L 145.2 37.199999999999996 L 145.2 37.4 L 161.39999999999998 37.4 z" stroke-linecap="round" />
</g>
</g>
</g>
<g transform="matrix(2.43 0 0 2.43 600 450)"  >
<g style=""   >
		<g transform="matrix(3.21 0 0 3.21 -194.54 -0.85)" id="SvgjsG3979"  >
<polygon style="stroke: none; stroke-width: 1; stroke-dasharray: none; stroke-linecap: butt; stroke-dashoffset: 0; stroke-linejoin: miter; stroke-miterlimit: 4; fill: rgb(112,69,175); fill-rule: nonzero; opacity: 1;" vector-effect="non-scaling-stroke"  points="-3.65,9.86 -6.21,7.3 1.1,0 -6.21,-7.3 -3.65,-9.86 6.21,0 " />
</g>
		<g transform="matrix(3.21 0 0 3.21 -146.64 26.74)" id="SvgjsG3979"  >
<rect style="stroke: none; stroke-width: 1; stroke-dasharray: none; stroke-linecap: butt; stroke-dashoffset: 0; stroke-linejoin: miter; stroke-miterlimit: 4; fill: rgb(112,69,175); fill-rule: nonzero; opacity: 1;" vector-effect="non-scaling-stroke"  x="-8.249" y="-1.8085" rx="0" ry="0" width="16.498" height="3.617" />
</g>
		<g transform="matrix(1.98 0 0 1.98 59.05 0.52)" id="SvgjsG3980"  >
<path style="stroke: none; stroke-width: 1; stroke-dasharray: none; stroke-linecap: butt; stroke-dashoffset: 0; stroke-linejoin: miter; stroke-miterlimit: 4; fill: rgb(57,57,57); fill-rule: nonzero; opacity: 1;" vector-effect="non-scaling-stroke"  transform=" translate(-82.7, -26)" d="M 4 40 L 4 12 L 16.8 12 C 21 12 23.8 14.8 23.8 18.6 L 23.8 33.400000000000006 C 23.8 37.2 21 40.00000000000001 16.8 40.00000000000001 L 4 40.00000000000001 z M 7 14.600000000000001 L 7 37.400000000000006 L 16.8 37.400000000000006 C 19 37.400000000000006 20.8 35.60000000000001 20.8 33.400000000000006 L 20.8 18.600000000000005 C 20.8 16.400000000000006 19 14.600000000000005 16.8 14.600000000000005 L 7 14.600000000000005 z M 49.2 40 L 46.2 40 L 46.2 29 L 38.2 29 L 32 40 L 29 40 L 29 38.8 L 35.2 28.799999999999997 C 35.2 28.799999999999997 29.800000000000004 27.999999999999996 29.800000000000004 22.4 L 29.800000000000004 18.599999999999998 C 29.800000000000004 14.799999999999997 32.6 11.999999999999998 36.800000000000004 11.999999999999998 L 49.2 11.999999999999998 L 49.2 40 z M 46.2 14.600000000000001 L 36.800000000000004 14.600000000000001 C 34.6 14.600000000000001 32.800000000000004 16.400000000000002 32.800000000000004 18.6 L 32.800000000000004 22.400000000000002 C 32.800000000000004 24.6 34.6 26.400000000000002 36.800000000000004 26.400000000000002 L 46.2 26.400000000000002 L 46.2 14.600000000000001 z M 60.2 40 L 57.2 40 L 57.2 12 L 60.2 12 L 60.2 40 z M 86.80000000000001 40 L 74.4 40 C 70.2 40 67.4 37.2 67.4 33.4 L 67.4 18.599999999999998 C 67.4 14.799999999999997 70.2 11.999999999999998 74.4 11.999999999999998 L 86 11.999999999999998 L 86 13.799999999999999 L 85.2 14.6 L 74.4 14.6 C 72.2 14.6 70.4 16.4 70.4 18.6 L 70.4 33.400000000000006 C 70.4 35.60000000000001 72.2 37.400000000000006 74.4 37.400000000000006 L 83.80000000000001 37.400000000000006 L 83.80000000000001 24.800000000000004 L 86.80000000000001 24.800000000000004 L 86.80000000000001 40 z M 93.2 33.8 L 93.2 18.199999999999996 C 93.2 14.399999999999995 96 11.599999999999996 100.2 11.599999999999996 L 107.2 11.599999999999996 C 111.4 11.599999999999996 114.2 14.399999999999995 114.2 18.199999999999996 L 114.2 33.8 C 114.2 37.599999999999994 111.4 40.4 107.2 40.4 L 100.2 40.4 C 96 40.4 93.2 37.6 93.2 33.8 z M 111.2 33.8 L 111.2 18.199999999999996 C 111.2 15.999999999999996 109.4 14.199999999999996 107.2 14.199999999999996 L 100.2 14.199999999999996 C 98 14.199999999999996 96.2 15.999999999999996 96.2 18.199999999999996 L 96.2 33.8 C 96.2 36 98 37.8 100.2 37.8 L 107.2 37.8 C 109.4 37.8 111.2 36 111.2 33.8 z M 128.8 36.4 L 129 36.4 L 137 12 L 140 12 L 140 13.2 L 130.8 40 L 127.00000000000001 40 L 117.80000000000001 13.2 L 117.80000000000001 12 L 120.80000000000001 12 z M 161.4 37.4 L 161.4 40 L 141.4 40 L 141.4 37.4 L 157.6 14.799999999999997 L 157.6 14.599999999999998 L 142.6 14.599999999999998 L 141.79999999999998 13.799999999999997 L 141.79999999999998 11.999999999999996 L 161.39999999999998 11.999999999999996 L 161.39999999999998 14.599999999999996 L 145.2 37.199999999999996 L 145.2 37.4 L 161.39999999999998 37.4 z" stroke-linecap="round" />
</g>
</g>
</g>
</svg>