<?xml version="1.0" encoding="UTF-8" standalone="no" ?>
<!DOCTYPE svg PUBLIC "-//W3C//DTD SVG 1.1//EN" "http://www.w3.org/Graphics/SVG/1.1/DTD/svg11.dtd">
<svg xmlns="http://www.w3.org/2000/svg" xmlns:xlink="http://www.w3.org/1999/xlink" version="1.1" width="1200" height="900" viewBox="0 0 1200 900" xml:space="preserve">
<desc>Created with Fabric.js 5.2.4</desc>
<defs>
</defs>
<rect x="0" y="0" width="100%" height="100%" fill="transparent"></rect>
<g transform="matrix(1 0 0 1 600 450)" id="05737ac0-9ccd-423f-b575-071001448d03"  >
<rect style="stroke: none; stroke-width: 1; stroke-dasharray: none; stroke-linecap: butt; stroke-dashoffset: 0; stroke-linejoin: miter; stroke-miterlimit: 4; fill: rgb(255,255,255); fill-rule: nonzero; opacity: 1; visibility: hidden;" vector-effect="non-scaling-stroke"  x="-600" y="-450" rx="0" ry="0" width="1200" height="900" />
</g>
<g transform="matrix(Infinity NaN NaN Infinity 0 0)" id="da5728f2-6b27-4a61-ad42-802cf1147177"  >
</g>
<g transform="matrix(2.57 0 0 2.57 600 450)"  >
<g style=""   >
		<g transform="matrix(6.88 0 0 6.88 -58.26 -84.63)" id="SvgjsG4942"  >
<polygon style="stroke: none; stroke-width: 1; stroke-dasharray: none; stroke-linecap: butt; stroke-dashoffset: 0; stroke-linejoin: miter; stroke-miterlimit: 4; fill: rgb(112,69,175); fill-rule: nonzero; opacity: 1;" vector-effect="non-scaling-stroke"  points="-3.65,9.86 -6.21,7.3 1.1,0 -6.21,-7.3 -3.65,-9.86 6.21,0 " />
</g>
		<g transform="matrix(6.88 0 0 6.88 44.23 -25.6)" id="SvgjsG4942"  >
<rect style="stroke: none; stroke-width: 1; stroke-dasharray: none; stroke-linecap: butt; stroke-dashoffset: 0; stroke-linejoin: miter; stroke-miterlimit: 4; fill: rgb(112,69,175); fill-rule: nonzero; opacity: 1;" vector-effect="non-scaling-stroke"  x="-8.249" y="-1.8085" rx="0" ry="0" width="16.498" height="3.617" />
</g>
		<g transform="matrix(4.58 0 0 4.58 0.71 88.38)" id="SvgjsG4943"  >
<path style="stroke: none; stroke-width: 1; stroke-dasharray: none; stroke-linecap: butt; stroke-dashoffset: 0; stroke-linejoin: miter; stroke-miterlimit: 4; fill: rgb(57,57,57); fill-rule: nonzero; opacity: 1;" vector-effect="non-scaling-stroke"  transform=" translate(-22.4, -26)" d="M 11.6 36.4 L 11.799999999999999 36.4 L 19.799999999999997 12 L 22.799999999999997 12 L 22.799999999999997 13.2 L 13.599999999999998 40 L 9.799999999999997 40 L 0.5999999999999979 13.2 L 0.5999999999999979 12 L 3.599999999999998 12 z M 44.2 37.4 L 44.2 40 L 24.200000000000003 40 L 24.200000000000003 37.4 L 40.400000000000006 14.799999999999997 L 40.400000000000006 14.599999999999998 L 25.400000000000006 14.599999999999998 L 24.600000000000005 13.799999999999997 L 24.600000000000005 11.999999999999996 L 44.2 11.999999999999996 L 44.2 14.599999999999996 L 28.000000000000004 37.199999999999996 L 28.000000000000004 37.4 L 44.2 37.4 z" stroke-linecap="round" />
</g>
</g>
</g>
</svg>